<svg width="266" height="286" viewBox="0 0 266 286" fill="none" xmlns="http://www.w3.org/2000/svg">
<mask id="mask0_6_7" style="mask-type:luminance" maskUnits="userSpaceOnUse" x="0" y="0" width="266" height="286">
<path d="M265.333 0H0V285.333H265.333V0Z" fill="white"/>
</mask>
<g mask="url(#mask0_6_7)">
<mask id="mask1_6_7" style="mask-type:luminance" maskUnits="userSpaceOnUse" x="0" y="76" width="211" height="210">
<path d="M0.84375 76H210.667V285.208H0.84375V76Z" fill="white"/>
</mask>
<g mask="url(#mask1_6_7)">
<path d="M105.177 106.401H209.625V76.5417H105.177C76.4011 76.5417 51.8229 86.7813 31.4479 107.151C11.0781 127.526 0.838562 152.099 0.838562 180.99V285.328H30.6927V180.99C30.6927 160.292 37.9167 142.833 52.4688 128.281C67.0209 113.729 84.5886 106.401 105.177 106.401Z" fill="#2A2E30"/>
</g>
<mask id="mask2_6_7" style="mask-type:luminance" maskUnits="userSpaceOnUse" x="54" y="1" width="211" height="210">
<path d="M54.6667 1.45833H264.745V210.667H54.6667V1.45833Z" fill="white"/>
</mask>
<g mask="url(#mask2_6_7)">
<path d="M160.151 180.234H55.8125V209.984H160.151C189.036 209.984 213.615 199.854 233.88 179.484C254.359 159.109 264.49 134.531 264.49 105.646V1.30728H234.635V105.646C234.635 126.234 227.411 143.802 212.859 158.354C198.307 172.906 180.74 180.234 160.151 180.234Z" fill="#F46530"/>
</g>
<mask id="mask3_6_7" style="mask-type:luminance" maskUnits="userSpaceOnUse" x="233" y="168" width="32" height="116">
<path d="M233.333 168H264.745V284H233.333V168Z" fill="white"/>
</mask>
<g mask="url(#mask3_6_7)">
<path fill-rule="evenodd" clip-rule="evenodd" d="M234.635 283.068H264.49V168.484C259.422 176.677 253.281 184.333 246.057 191.661C242.396 195.323 238.62 198.667 234.635 201.797V283.068Z" fill="#2A2E30"/>
</g>
<mask id="mask4_6_7" style="mask-type:luminance" maskUnits="userSpaceOnUse" x="0" y="1" width="43" height="42">
<path d="M0.84375 1.45833H42.6667V42.6667H0.84375V1.45833Z" fill="white"/>
</mask>
<g mask="url(#mask4_6_7)">
<path fill-rule="evenodd" clip-rule="evenodd" d="M21.3177 1.30728C32.6354 1.30728 41.7969 10.4687 41.7969 21.7864C41.7969 33.1042 32.6354 42.2656 21.3177 42.2656C10.1094 42.2656 0.838562 33.1042 0.838562 21.7864C0.838562 10.4687 10.1094 1.30728 21.3177 1.30728Z" fill="#F46530"/>
</g>
</g>
</svg>
