<svg width="895" height="342" viewBox="0 0 895 342" fill="none" xmlns="http://www.w3.org/2000/svg">
<mask id="mask0_14_2262" style="mask-type:luminance" maskUnits="userSpaceOnUse" x="0" y="0" width="895" height="342">
<path d="M894.857 0H0V342H894.857V0Z" fill="white"/>
</mask>
<g mask="url(#mask0_14_2262)">
<path d="M365.83 120.962H388.209V217.591H365.83V120.962Z" fill="white"/>
<path d="M473.635 179.622L460.657 193.163V217.591H438.438V120.962H460.657V166.082L503.488 120.962H528.318L488.3 164.033L530.648 217.591H504.572L473.635 179.622Z" fill="white"/>
<path d="M631.56 196.899H586.681L578.123 217.591H555.221L598.292 120.962H620.391L663.583 217.591H640.118L631.56 196.899ZM624.529 179.904L609.221 142.899L593.873 179.904H624.529Z" fill="white"/>
<path d="M762.579 217.591L743.936 190.672H723.365V217.591H700.985V120.962H742.811C751.379 120.962 758.812 122.398 765.11 125.261C771.428 128.103 776.29 132.151 779.695 137.395C783.09 142.648 784.798 148.866 784.798 156.038C784.798 163.22 783.07 169.407 779.615 174.6C776.159 179.803 771.258 183.781 764.909 186.533L786.606 217.591H762.579ZM762.137 156.038C762.137 150.603 760.379 146.435 756.874 143.542C753.388 140.629 748.286 139.163 741.566 139.163H723.365V172.872H741.566C748.286 172.872 753.388 171.406 756.874 168.453C760.379 165.51 762.137 161.371 762.137 156.038Z" fill="#F4FBFF"/>
<path d="M829.774 120.962H852.153V217.591H829.774V120.962Z" fill="white"/>
<mask id="mask1_14_2262" style="mask-type:luminance" maskUnits="userSpaceOnUse" x="2" y="1" width="314" height="340">
<path d="M2.08936 1.77789H315.291V340.564H2.08936V1.77789Z" fill="white"/>
</mask>
<g mask="url(#mask1_14_2262)">
<mask id="mask2_14_2262" style="mask-type:luminance" maskUnits="userSpaceOnUse" x="0" y="0" width="317" height="342">
<path d="M316.286 0H0V342H316.286V0Z" fill="white"/>
</mask>
<g mask="url(#mask2_14_2262)">
<mask id="mask3_14_2262" style="mask-type:luminance" maskUnits="userSpaceOnUse" x="2" y="90" width="250" height="251">
<path d="M2.08936 90H252V340.212H2.08936V90Z" fill="white"/>
</mask>
<g mask="url(#mask3_14_2262)">
<path d="M126.311 127.025H250.664V91.4765H126.311C92.0492 91.4765 62.7891 103.661 38.5313 127.919C14.2735 152.176 2.08936 181.436 2.08936 215.829V340.051H37.6373V215.829C37.6373 191.19 46.2356 170.397 63.5525 153.07C80.8795 135.753 101.803 127.025 126.311 127.025Z" fill="white"/>
</g>
<mask id="mask4_14_2262" style="mask-type:luminance" maskUnits="userSpaceOnUse" x="66" y="1" width="250" height="251">
<path d="M66.8574 1.77789H315.292V252H66.8574V1.77789Z" fill="white"/>
</mask>
<g mask="url(#mask4_14_2262)">
<path d="M191.763 214.935H67.5305V250.353H191.763C226.156 250.353 255.416 238.289 279.543 214.031C303.921 189.773 315.985 160.513 315.985 126.121V1.89843H280.437V126.121C280.437 150.639 271.839 171.552 254.512 188.879C237.195 206.206 216.272 214.935 191.763 214.935Z" fill="#F46530"/>
</g>
<mask id="mask5_14_2262" style="mask-type:luminance" maskUnits="userSpaceOnUse" x="280" y="200" width="36" height="140">
<path d="M280.286 200.571H315.291V339.429H280.286V200.571Z" fill="white"/>
</mask>
<g mask="url(#mask5_14_2262)">
<path fill-rule="evenodd" clip-rule="evenodd" d="M280.437 337.359H315.985V200.943C309.948 210.696 302.635 219.807 294.037 228.536C289.678 232.895 285.188 236.873 280.437 240.599V337.359Z" fill="white"/>
<path fill-rule="evenodd" clip-rule="evenodd" d="M280.437 337.359H315.985V200.943C309.948 210.696 302.635 219.807 294.037 228.536C289.678 232.895 285.188 236.873 280.437 240.599V337.359Z" fill="white"/>
<path fill-rule="evenodd" clip-rule="evenodd" d="M280.437 337.359H315.985V200.943C309.948 210.696 302.635 219.807 294.037 228.536C289.678 232.895 285.188 236.873 280.437 240.599V337.359Z" fill="white"/>
</g>
<mask id="mask6_14_2262" style="mask-type:luminance" maskUnits="userSpaceOnUse" x="0" y="0" width="36" height="139">
<path d="M35.0056 138.857H3.43323e-05V0H35.0056V138.857Z" fill="white"/>
</mask>
<g mask="url(#mask6_14_2262)">
<path fill-rule="evenodd" clip-rule="evenodd" d="M34.855 2.06919H-0.693012V138.485C5.34382 128.732 12.6563 119.622 21.2545 110.893C25.6139 106.533 30.1039 102.556 34.855 98.8292V2.06919Z" fill="#F46530"/>
<path fill-rule="evenodd" clip-rule="evenodd" d="M34.855 2.06919H-0.693012V138.485C5.34382 128.732 12.6563 119.622 21.2545 110.893C25.6139 106.533 30.1039 102.556 34.855 98.8292V2.06919Z" fill="#F46530"/>
<path fill-rule="evenodd" clip-rule="evenodd" d="M34.855 2.06919H-0.693012V138.485C5.34382 128.732 12.6563 119.622 21.2545 110.893C25.6139 106.533 30.1039 102.556 34.855 98.8292V2.06919Z" fill="#F46530"/>
</g>
</g>
</g>
</g>
</svg>
